<svg xmlns="http://www.w3.org/2000/svg" viewBox="0 0 434.64 397.02"><defs><style>.cls-1{fill:#a6e2e2;}.cls-2{fill:#fff;}.cls-3{fill:#d7f2ed;}.cls-4{fill:#2e303d;}.cls-5{fill:#ff9971;}.cls-6{fill:#f9785a;}.cls-7{fill:#8e8e8e;}.cls-8{fill:#b7b7b7;}.cls-9{fill:#d5e0e0;}.cls-10{fill:#27c8cc;}.cls-11{fill:#e56b45;}.cls-12{fill:#0cbcbc;}.cls-13{fill:#ed694f;}.cls-14{fill:#ff9076;}</style></defs><title>heromentoring</title><g id="OBJECTS"><circle class="cls-1" cx="190.2" cy="165.63" r="165.63"/><path class="cls-2" d="M247.05,280s-46.17,56-62.5,54.57S157,305.81,157,305.81s.56-.3,1.51-.87c4.78-2.82,19.48-12.16,22.92-22.13,3.33-5.41,27.55-44.68,34.92-54.7,7.93-10.77,17.26-11.19,17.26-11.19,5.26,8.65,11.9,15.23,20.13,16.47a32.53,32.53,0,0,0,3.28.33c.5,3.52,3.81,21.48,19.94,30.67,0,0,.62-12.51,8.89-13.62,0,0,8.76-4.8,16,2.22,0,0,11.46-12.3,0-46.84l-8.18-7.4h0l-3.75-8.92s41.85-2.09,51.53,6.88,71.6,90.9,71.6,90.9L323,357.53S268.38,303.37,247.05,280Z" transform="translate(-32.94 -53.13)"/><path class="cls-3" d="M301.87,206.15c11.46,34.54,0,46.84,0,46.84-7.23-7-16-2.22-16-2.22L297.56,208l-3.87-9.2Z" transform="translate(-32.94 -53.13)"/><path class="cls-3" d="M273.77,242.78l12.11,8c-8.27,1.11-8.89,13.62-8.89,13.62-16.13-9.19-19.44-27.15-19.94-30.67a26.25,26.25,0,0,0,2.95,0Z" transform="translate(-32.94 -53.13)"/><path class="cls-4" d="M246.77,279.56q-7.56-9.31-15.11-18.65c-.41-.5-1.11.21-.71.71q7.56,9.33,15.11,18.65C246.47,280.77,247.17,280.06,246.77,279.56Z" transform="translate(-32.94 -53.13)"/><path class="cls-4" d="M242.36,280.79l-10.7-4.59c-.59-.25-1.1.61-.51.86l10.7,4.59C242.44,281.9,243,281,242.36,280.79Z" transform="translate(-32.94 -53.13)"/><path class="cls-4" d="M322,309.31l-13.6-22.5-13.54-22.4-7.68-12.69a.5.5,0,0,0-.86.5l13.61,22.5q6.77,11.2,13.54,22.4,3.82,6.35,7.67,12.69C321.44,310.36,322.31,309.86,322,309.31Z" transform="translate(-32.94 -53.13)"/><path class="cls-5" d="M182.19,279.12a12.72,12.72,0,0,1-.73,3.69c-3.44,10-18.14,19.31-22.92,22.13L157,299.41s-7.75,1.74-13.42-3.17a2,2,0,0,1-.67.73,4.52,4.52,0,0,1-2.75.41,22.5,22.5,0,0,1-11.76-4.64,11.1,11.1,0,0,1-4.33-6,5.77,5.77,0,0,1,2.43-6.24,7.14,7.14,0,0,1-.15-1.13,7.91,7.91,0,0,1,2.6-5.77,21.21,21.21,0,0,1,5-3.39l.06-.25a7.32,7.32,0,0,1,2.81-3.77,20.57,20.57,0,0,1,3.8-2.08c-6.41-3.3-12.56-7-11.94-8.6,1.25-3.33,14.38-2.15,27.66,2.5S174,269.59,174,269.59C178.08,267.76,182.6,268.12,182.19,279.12Z" transform="translate(-32.94 -53.13)"/><path class="cls-4" d="M177.33,281,168,285l-4.7,2c-1.28.55-2.85,1.45-4.3,1s-1.57-2.22-1-3.47a17.78,17.78,0,0,1,2.39-3.46,39.63,39.63,0,0,1,5.72-5.79,39.13,39.13,0,0,1,7.95-5.07c.58-.28.08-1.14-.5-.86a40.26,40.26,0,0,0-14.14,11.33c-1.46,1.87-4.23,5.17-2,7.51a3.81,3.81,0,0,0,3.93.66,48,48,0,0,0,4.75-2l11.69-5C178.42,281.61,177.91,280.75,177.33,281Z" transform="translate(-32.94 -53.13)"/><path class="cls-4" d="M152.93,271l-11.64-6.95c-.55-.33-1,.54-.5.87l11.64,6.95C153,272.21,153.48,271.34,152.93,271Z" transform="translate(-32.94 -53.13)"/><path class="cls-4" d="M154.74,289.75a9.58,9.58,0,0,0-.9-2.69c-.39-1-.79-1.91-1.19-2.87q-2.76-6.58-5.51-13.18c-.25-.58-1.21-.33-1,.27q2.24,5.33,4.46,10.66l2.25,5.38c.46,1.09,1.86,4-.16,4.43-1.42.32-3.08-1.1-4.15-1.85A36.38,36.38,0,0,1,145,287a37,37,0,0,1-5.85-6.88,36.14,36.14,0,0,1-4.35-9.21c-.19-.61-1.15-.35-1,.27a37.4,37.4,0,0,0,14.2,19.54c1.25.88,2.74,2,4.34,2A2.54,2.54,0,0,0,154.74,289.75Z" transform="translate(-32.94 -53.13)"/><path class="cls-4" d="M146.34,290.27c-.38-.51-1.25,0-.86.51a2.29,2.29,0,0,1,0,3,2.55,2.55,0,0,1-3,.41,13.89,13.89,0,0,1-2.79-1.9c-.91-.72-1.81-1.46-2.69-2.21a77.85,77.85,0,0,1-9.57-9.9c-.4-.5-1.11.21-.71.7a77.22,77.22,0,0,0,8.73,9.17c1.54,1.36,3.13,2.67,4.78,3.91,1.45,1.08,3.34,2.11,5.12,1.14A3.25,3.25,0,0,0,146.34,290.27Z" transform="translate(-32.94 -53.13)"/><path class="cls-5" d="M297.56,208l-11.68,42.82-12.11-8c12.46-17.7,10-38.72,10-38.72s-1.94,28.31-23.8,29.64a26.25,26.25,0,0,1-2.95,0,32.53,32.53,0,0,1-3.28-.33c-8.23-1.24-14.87-7.82-20.13-16.47-10.45-17.18-15.5-42.48-16.87-50.25,12.31-1.61,24.27-6.78,35.95-11.44,3.61-1.44,7.42-2.87,11.29-2.44s7.51,2.79,10.17,5.76a43.54,43.54,0,0,1,5.71,8.76c.46-2.82,2.37-11.28,8.77-8.84a5.59,5.59,0,0,1,2,1.3c5.31,5.36,3.36,22-2.66,25.39l2,4.66,3.75,8.92h0Z" transform="translate(-32.94 -53.13)"/><path class="cls-4" d="M283.8,204.06s2.43,21-10,38.72L260,233.7C281.86,232.37,283.8,204.06,283.8,204.06Z" transform="translate(-32.94 -53.13)"/><path class="cls-4" d="M289.55,144.65c-.59-3.76-1.51-7.67-4-10.53-2.25-2.55-6.13-3.91-9.18-2.65A13.42,13.42,0,0,0,266.76,115c-8.48-2.21-16.23,3.37-23.11,7.44a41.82,41.82,0,0,1-11.7,4.91,38.54,38.54,0,0,1-12.44.85,40,40,0,0,1-6.25-1.15,34,34,0,0,0-6.22-1.35c-3.53-.28-7.12,1-8.54,4.5-1.32,3.22-.64,7,.64,10.07a20.79,20.79,0,0,0,3.77,6,9.94,9.94,0,0,0-8.07,17.06c2.75,2.63,6.73,3.47,10.52,3.75a55,55,0,0,0,11.41-.38c12.31-1.61,24.27-6.78,35.95-11.44,3.61-1.44,7.42-2.87,11.29-2.44s7.51,2.79,10.17,5.76a43.54,43.54,0,0,1,5.71,8.76c.46-2.82,2.37-11.28,8.77-8.84a5.59,5.59,0,0,1,2,1.3A89.08,89.08,0,0,0,289.55,144.65Zm-21.23-24.53c-4.78-1.72-10.14-.6-14.8,1.42s-8.92,4.87-13.6,6.82a38.71,38.71,0,0,1-27.13.84c-3.24-1.12-6.78-2.68-9.93-1.34a7.36,7.36,0,0,0-4.06,6.29,10.9,10.9,0,0,1,.13-1.8,6.75,6.75,0,0,1,2.25-4.17,7.79,7.79,0,0,1,5-1.5,23,23,0,0,1,6,1.14,46.09,46.09,0,0,0,5.83,1.23,39.14,39.14,0,0,0,22.53-3.74c7.09-3.55,13.58-9.49,21.9-9.75a13,13,0,0,1,9.89,3.87,12.49,12.49,0,0,1,3.33,10.3c0,.13-.05.26-.07.39C275.79,125.85,272.47,121.63,268.32,120.12Z" transform="translate(-32.94 -53.13)"/><path class="cls-2" d="M268.51,204.4s5.56,10.16-2.92,16.06S251.13,218,251.13,218Z" transform="translate(-32.94 -53.13)"/><path class="cls-6" d="M239.6,186l11.53,22.94s-9.38,5.28-11.53,2.22S239.6,186,239.6,186Z" transform="translate(-32.94 -53.13)"/><path class="cls-4" d="M235.36,191.17c.88,3-.09,5.92-2.17,6.54s-4.48-1.32-5.37-4.31.09-5.92,2.17-6.53S234.47,188.18,235.36,191.17Z" transform="translate(-32.94 -53.13)"/><path class="cls-4" d="M259.69,183c.88,3-.09,5.91-2.17,6.53s-4.48-1.32-5.36-4.31.08-5.92,2.16-6.53S258.8,180,259.69,183Z" transform="translate(-32.94 -53.13)"/><path class="cls-4" d="M230.3,179.06a21.48,21.48,0,0,0-5.43,2.14,2,2,0,0,0-.64,2.75,2,2,0,0,0,2.76.64c.42-.23.85-.44,1.29-.64a18.48,18.48,0,0,1,3.15-1,2,2,0,0,0-1.13-3.84Z" transform="translate(-32.94 -53.13)"/><path class="cls-4" d="M258.8,172.33a2.32,2.32,0,0,0-1.41-.54,15.4,15.4,0,0,0-7.2,1.06,2.19,2.19,0,0,0-1.19,1,2.06,2.06,0,0,0-.16,1.52,2,2,0,0,0,2.49,1.35,13.73,13.73,0,0,1,2.88-.82,14.22,14.22,0,0,1,3.26-.08,2,2,0,0,0,1.42-.63,2,2,0,0,0-.09-2.83Z" transform="translate(-32.94 -53.13)"/><path class="cls-4" d="M276.08,114.65c-.26-.59-1.12-.08-.87.51a33.5,33.5,0,0,1,2.73,13.65.5.5,0,0,0,1,0A34.82,34.82,0,0,0,276.08,114.65Z" transform="translate(-32.94 -53.13)"/><path class="cls-4" d="M280.66,123.27q-.65,2.64-1.28,5.28c-.16.62.81.89,1,.27.43-1.76.85-3.52,1.28-5.28C281.77,122.91,280.81,122.65,280.66,123.27Z" transform="translate(-32.94 -53.13)"/><polygon class="cls-7" points="240.92 366.32 240.92 372.71 151.7 372.71 83.69 335.74 83.69 329.99 153 366.32 240.92 366.32"/><polygon class="cls-8" points="240.92 366.32 153 366.32 83.69 329.99 171.61 329.99 240.92 366.32"/><polygon class="cls-7" points="162.3 363.52 151.48 363.52 142.94 359.05 153.77 359.05 162.3 363.52"/><polygon class="cls-7" points="150.86 357.55 140.03 357.55 131.5 353.07 142.33 353.07 150.86 357.55"/><polygon class="cls-7" points="141.18 351.8 130.35 351.8 121.82 347.33 132.65 347.33 141.18 351.8"/><polygon class="cls-7" points="129.74 345.82 118.91 345.82 110.38 341.35 121.2 341.35 129.74 345.82"/><polygon class="cls-7" points="175.37 362.65 164.54 362.65 156.01 358.18 166.84 358.18 175.37 362.65"/><polygon class="cls-7" points="165.69 356.91 154.86 356.91 146.33 352.44 157.15 352.44 165.69 356.91"/><polygon class="cls-7" points="154.25 350.93 143.42 350.93 134.88 346.46 145.71 346.46 154.25 350.93"/><polygon class="cls-7" points="177.73 355.84 166.91 355.84 158.37 351.37 169.2 351.37 177.73 355.84"/><polygon class="cls-7" points="168.05 350.1 157.22 350.1 148.69 345.63 159.52 345.63 168.05 350.1"/><polygon class="cls-7" points="156.61 344.12 145.78 344.12 137.25 339.65 148.07 339.65 156.61 344.12"/><polygon class="cls-7" points="217.62 364.06 206.79 364.06 198.25 359.59 209.08 359.59 217.62 364.06"/><polygon class="cls-7" points="206.17 358.09 195.35 358.09 186.81 353.61 197.64 353.61 206.17 358.09"/><polygon class="cls-7" points="196.49 352.34 185.67 352.34 177.13 347.87 187.96 347.87 196.49 352.34"/><polygon class="cls-7" points="185.05 346.36 174.22 346.36 165.69 341.89 176.52 341.89 185.05 346.36"/><polygon class="cls-7" points="230.68 363.19 219.86 363.19 211.32 358.72 222.15 358.72 230.68 363.19"/><polygon class="cls-7" points="221 357.45 210.17 357.45 201.64 352.98 212.47 352.98 221 357.45"/><polygon class="cls-7" points="209.56 351.47 198.73 351.47 190.2 347 201.03 347 209.56 351.47"/><polygon class="cls-9" points="297.09 397.02 209.17 397.02 164.28 373.44 252.2 373.44 297.09 397.02"/><polygon class="cls-10" points="236.11 394.19 210.53 394.19 197.46 387.33 223.05 387.33 236.11 394.19"/><path class="cls-8" d="M277,446.88a1,1,0,0,1-.46-.11l-30.34-15.94a1,1,0,0,1,.93-1.77L277.51,445a1,1,0,0,1-.47,1.88Z" transform="translate(-32.94 -53.13)"/><path class="cls-8" d="M287.25,446.3a.93.93,0,0,1-.46-.12l-30.34-15.93a1,1,0,1,1,.93-1.78l30.34,15.94a1,1,0,0,1-.47,1.89Z" transform="translate(-32.94 -53.13)"/><path class="cls-8" d="M301.13,447.18a1,1,0,0,1-.47-.12l-30.34-15.93a1,1,0,1,1,.93-1.77l30.34,15.93a1,1,0,0,1-.46,1.89Z" transform="translate(-32.94 -53.13)"/><path class="cls-8" d="M311.33,446.59a1.11,1.11,0,0,1-.46-.11l-30.34-15.94a1,1,0,1,1,.93-1.77L311.8,444.7a1,1,0,0,1-.47,1.89Z" transform="translate(-32.94 -53.13)"/><path class="cls-1" d="M403,181.28l17.11-8.91a37.89,37.89,0,1,0-17.4-10Z" transform="translate(-32.94 -53.13)"/><polygon class="cls-7" points="407.41 108.86 407.41 111.34 405.27 111.34 390.82 111.34 388.59 111.34 388.59 104.25 407.41 108.86"/><path class="cls-8" d="M423.76,164.47h14.45s-.34,3-7.27,3S423.76,164.47,423.76,164.47Z" transform="translate(-32.94 -53.13)"/><polygon class="cls-8" points="407.41 102.11 407.41 108.86 388.59 104.25 388.59 102.11 389.94 102.11 406.48 102.11 407.41 102.11"/><path class="cls-10" d="M453.34,125.48a22.18,22.18,0,0,1-11,19.17l-2.91,10.58H422.88L420,144.65a22.18,22.18,0,1,1,33.35-19.17Z" transform="translate(-32.94 -53.13)"/><path class="cls-2" d="M422.25,130.62c-.08-.52-.89-.3-.81.23l3.72,23.84c.09.53.89.31.81-.22Z" transform="translate(-32.94 -53.13)"/><path class="cls-2" d="M439.84,129.82q-2,12.56-4,25.1c-.08.53.72.75.81.22q2-12.54,4-25.1C440.73,129.51,439.93,129.29,439.84,129.82Z" transform="translate(-32.94 -53.13)"/><path class="cls-2" d="M442.1,135.86a4,4,0,0,1-4.39,2.55,5.52,5.52,0,0,1-3.53-2.76,10.71,10.71,0,0,0,1.57-3.5,10,10,0,0,0,.21-3.77c-.14-1-.59-2.18-1.69-2.33-1.29-.17-1.95,1.13-2.16,2.19a11.19,11.19,0,0,0,0,4.16,10.74,10.74,0,0,0,1.07,3.16c-.11.13-.22.27-.34.4a4.16,4.16,0,0,1-2.72,1.56,2.61,2.61,0,0,1-2.33-1.41,7.44,7.44,0,0,0,1.14-2.69,16.29,16.29,0,0,0,.33-4.35c-.08-1.1-.84-2.39-2.13-2s-1.55,2-1.63,3.16a10.42,10.42,0,0,0,.47,4,10.92,10.92,0,0,0,.81,1.92,3.58,3.58,0,0,1-2.15,1.24c-2.52.41-3.46-2.16-3.95-4.11a.42.42,0,0,0-.81.22c.55,2.17,1.6,4.77,4.25,4.76a4.22,4.22,0,0,0,3.11-1.4,5.35,5.35,0,0,0,.67.75,3.25,3.25,0,0,0,3.45.53,6.17,6.17,0,0,0,2.3-1.71,6.63,6.63,0,0,0,3.12,2.64,4.87,4.87,0,0,0,6.16-2.93C443.09,135.58,442.28,135.36,442.1,135.86Zm-15.73-6.24a2.51,2.51,0,0,1,.61-1.56c.51-.46,1.08-.16,1.3.41a4.33,4.33,0,0,1,.11,1.72c0,.59,0,1.18-.1,1.76a8.64,8.64,0,0,1-1,3.36A9.75,9.75,0,0,1,426.37,129.62Zm7.27,5a10.19,10.19,0,0,1-.65-6.53,1.52,1.52,0,0,1,.87-1.21c.51-.16.86.28,1,.7a6.2,6.2,0,0,1,.29,2.87,9.48,9.48,0,0,1-1.47,4.31S433.67,134.7,433.64,134.65Z" transform="translate(-32.94 -53.13)"/><path class="cls-2" d="M189,186.88l-17.8,2.76a35.42,35.42,0,1,1,7.54-17.16Z" transform="translate(-32.94 -53.13)"/><polygon class="cls-10" points="138.92 102.83 105.78 135.98 87.75 117.95 96.49 109.21 105.78 118.49 130.18 94.09 138.92 102.83"/><path class="cls-5" d="M379.11,265.68,356.53,291l-5.77,15.57L349.58,292l-2.37-17.79.24-3.29,1.35-18.59A40.09,40.09,0,0,1,338,252c-13.5-2.4-23.8-12.71-25.09-35-.79-13.59.89-23.83,3.16-31.21,3.33-10.84,8-15.49,8-15.49s16.89,28.29,39.27,31.42c0,0,4.1-9.67,10.49-6.82s6.4,22.09-3.74,24.61a83.61,83.61,0,0,0,5.61,39.36A39,39,0,0,0,379.11,265.68Z" transform="translate(-32.94 -53.13)"/><circle class="cls-6" cx="324.09" cy="165.63" r="9.05"/><path class="cls-4" d="M360.07,250.09l-12,12,.71-9.73A57.9,57.9,0,0,0,360.07,250.09Z" transform="translate(-32.94 -53.13)"/><path class="cls-4" d="M348.09,262.05l-.64,8.86s-13,5.82-18.93,19.57a25.94,25.94,0,0,1-.22-13,71.7,71.7,0,0,1,5-13.8A96,96,0,0,0,338,252a40.09,40.09,0,0,0,10.83.37Z" transform="translate(-32.94 -53.13)"/><path class="cls-6" d="M326.64,206l5.15,21.69s-9,2.71-10.15.55S326.64,206,326.64,206Z" transform="translate(-32.94 -53.13)"/><path class="cls-4" d="M452.86,270.4c-2.69-11-9.19-20.46-16.61-28.79-6-6.74-12.67-12.84-19-19.27-2-3.23-3.83-6.53-5.49-9.94-6.2-12.79-9.45-26.86-15.83-39.55s-17.1-24.52-31.14-26.71c-20.62-3.22-40.3,15.06-60.81,11.21a34.76,34.76,0,0,0,11.29,28.13l.77.24c2.86-9.3,6.66-14,7.69-15.2,1.23,6.15,5.5,11.2,9.72,15.66,4.93,5.21,10.49,10.06,17.23,12.75a27.41,27.41,0,0,0,9.13,2,31.2,31.2,0,0,0,3.46.71s4.1-9.67,10.49-6.82,6.4,22.09-3.74,24.61a83.61,83.61,0,0,0,5.61,39.36,39,39,0,0,0,3.48,6.88,19.9,19.9,0,0,0,3,3.64h0c.41.38.84.75,1.3,1.1,8.79,6.71,21.74,2.69,32.09,6.58,9.58,3.6,15.52,13.68,17.08,23.8s-.47,20.41-2.49,30.45l.18.06c.2-.6.39-1.21.58-1.81,13.44-4.76,21.4-19.33,22-33.66A55.13,55.13,0,0,0,452.86,270.4ZM343,193.5a76.08,76.08,0,0,1-14.46-14.68,24.65,24.65,0,0,1-3.45-6.85c3.45,5.22,14.68,20.81,29.51,27.19A34.6,34.6,0,0,1,343,193.5Zm109.79,97.32c-1-14.48-8-28-16.07-40.13-5.51-8.26-11.6-16.16-17-24.46,3.86,3.81,7.77,7.57,11.53,11.47,7.94,8.24,15.46,17.44,19.28,28.37A52.79,52.79,0,0,1,452.81,290.82Z" transform="translate(-32.94 -53.13)"/><path class="cls-4" d="M322.87,206.14c0,3.12-1.76,5.65-3.93,5.65s-3.92-2.53-3.92-5.65,1.75-5.66,3.92-5.66S322.87,203,322.87,206.14Z" transform="translate(-32.94 -53.13)"/><path class="cls-4" d="M343.22,205.33c0,3.12-1.76,5.65-3.93,5.65s-3.92-2.53-3.92-5.65,1.75-5.66,3.92-5.66S343.22,202.2,343.22,205.33Z" transform="translate(-32.94 -53.13)"/><path class="cls-4" d="M321.45,193.09a21,21,0,0,0-5.81.51,2,2,0,0,0-1.39,2.46,2,2,0,0,0,2.46,1.39c.47-.1.94-.18,1.42-.25a19.37,19.37,0,0,1,3.32-.11,2,2,0,0,0,2-2A2,2,0,0,0,321.45,193.09Z" transform="translate(-32.94 -53.13)"/><path class="cls-4" d="M345.38,194.88a2.29,2.29,0,0,0-1.2-.92,15.25,15.25,0,0,0-7.2-1,2.13,2.13,0,0,0-1.42.58,2.08,2.08,0,0,0-.58,1.42,2,2,0,0,0,2,2,14.33,14.33,0,0,1,3,0,14.18,14.18,0,0,1,3.14.86,2,2,0,0,0,1.54-.21,2,2,0,0,0,.72-2.73Z" transform="translate(-32.94 -53.13)"/><path class="cls-11" d="M346.9,235c1.45,3.58.08,7.51-3,8.78s-6.84-.61-8.29-4.19-.09-7.52,3-8.79S345.45,231.39,346.9,235Z" transform="translate(-32.94 -53.13)"/><path class="cls-2" d="M348,230s3,8.55-5.63,11.4c-7,2.32-10-2.29-10.76-3.87Z" transform="translate(-32.94 -53.13)"/><path class="cls-10" d="M430.1,331.26l.18.06c-2.78,8.63-5.94,17.29-9.13,25.46h0c-9.86,25.24-20,45.83-20.33,46.44-9.74-13.45-27.88-22.38-33.77-25-1.21-.54-1.9-.82-1.9-.82l-3.71,11.12.93.86-33.63,4.48V380s-.83-1.8-2.06-4.66c-1.68-3.9-4.11-9.78-6.14-15.7-2.23-6.5-4-13.05-3.77-17.08.56-10.38,23.3-50.41,23.3-50.41a44.69,44.69,0,0,0,1.31,10.43,6.75,6.75,0,0,1,.67-1.95c.1.43,3.32,13.71,9.33,23.77l12.8-21.82c.53,1.37,1.05,2.9,1.52,4.58,0,0,14.2-23,16.42-37.81.41.38.84.75,1.3,1.1,8.79,6.71,21.74,2.69,32.09,6.58,9.58,3.6,15.52,13.68,17.08,23.8S432.12,321.22,430.1,331.26Z" transform="translate(-32.94 -53.13)"/><path class="cls-10" d="M421.15,356.79l6,52.65h-27l2.24-3.89c-.49-.79-1-1.56-1.58-2.32C401.13,402.62,411.29,382,421.15,356.79Z" transform="translate(-32.94 -53.13)"/><path class="cls-12" d="M400.82,403.23c.56.76,1.09,1.53,1.58,2.32l-2.24,3.89-11.29,19.65s-4-18.67-26.5-39.73l-.93-.86,3.71-11.12s.69.28,1.9.82C372.94,380.85,391.08,389.78,400.82,403.23Z" transform="translate(-32.94 -53.13)"/><path class="cls-5" d="M388.87,429.09s-25.83.46-98-3.71c0,0-16.87,11.68-23.72,10.94s-20.39-13.44-23.73-18.72,5.38-13.16,5.38-13.16.09-4,5.56-6.3c2.44-1,9.13-.89,15.81-.42,8.32.6,16.62,1.72,16.62,1.72l20.09-2.68,21.9-2.92,33.63-4.48C384.9,410.42,388.87,429.09,388.87,429.09Z" transform="translate(-32.94 -53.13)"/><path class="cls-2" d="M382.12,269.32h0c-2.22,14.85-16.42,37.81-16.42,37.81-.47-1.68-1-3.21-1.52-4.58-3.43-8.88-7.65-11.54-7.65-11.54l22.58-25.34A19.9,19.9,0,0,0,382.12,269.32Z" transform="translate(-32.94 -53.13)"/><path class="cls-3" d="M364.18,302.56l-12.8,21.82c-6-10.06-9.23-23.34-9.33-23.77h0c2-4.06,7.53-8.61,7.53-8.61l1.18,14.6L356.53,291S360.75,293.68,364.18,302.56Z" transform="translate(-32.94 -53.13)"/><path class="cls-2" d="M340,355.24h15.6l.62,32H333.18l-.47-32Zm10.72,18.08v-15H338.21v15Z" transform="translate(-32.94 -53.13)"/><rect class="cls-10" x="305.27" y="305.18" width="12.54" height="15.01"/><path class="cls-2" d="M347.21,274.2,349.58,292s-5.52,4.55-7.53,8.61h0a6.75,6.75,0,0,0-.67,1.95,44.69,44.69,0,0,1-1.31-10.43C340,286,341.41,278.6,347.21,274.2Z" transform="translate(-32.94 -53.13)"/><polygon class="cls-8" points="311.11 297.24 314.96 302.11 307.09 302.11 311.11 297.24"/><path class="cls-10" d="M328.52,290.48c6-13.75,18.93-19.57,18.93-19.57l-.24,3.29c-5.8,4.4-7.17,11.8-7.14,17.93,0,0-22.74,40-23.3,50.41-.21,4,1.54,10.58,3.77,17.08l-1.36.34-9.76-4.74.31-.63s12.42-44,17.42-60.42A31.58,31.58,0,0,1,328.52,290.48Z" transform="translate(-32.94 -53.13)"/><path class="cls-5" d="M328.74,380v13.86l-21.9,2.92-66.65-.14c-11.28,4.85-17.11,5.11-21.47,2.94-1.78.12-8.46.86-10.24,1-.17,1.92-.76,3.63-2.35,3.63-3.61,0-7.64-8.06-7.64-8.06s-1.11,8.06-4.73,6.12-2.64-13-2.64-13-8.2,8-9.31,5,4.31-17.47,17.79-18.72,43.92,4.17,43.92,4.17l60.37-10.1,22.79,5.72C327.91,378.18,328.74,380,328.74,380Z" transform="translate(-32.94 -53.13)"/><path class="cls-12" d="M326.68,375.32l-22.79-5.72c-1.4-11.21,2.32-15.94,2.32-15.94l3.21,1.56,11.12,4.4h0C322.57,365.54,325,371.42,326.68,375.32Z" transform="translate(-32.94 -53.13)"/><path class="cls-13" d="M280.81,375.2a3.36,3.36,0,0,1,.95,4.44c-7.05-.91-8.73-4.12-8.73-4.12a4.27,4.27,0,0,1,2.86-2.2A9,9,0,0,1,280.81,375.2Z" transform="translate(-32.94 -53.13)"/><path class="cls-14" d="M281.76,379.64,277.5,387a14.34,14.34,0,0,1-8.61-4.52l4.14-7S274.71,378.73,281.76,379.64Z" transform="translate(-32.94 -53.13)"/><path class="cls-10" d="M277.5,387l-6.64,11.46-11.34-.24,9.37-15.74A14.34,14.34,0,0,0,277.5,387Z" transform="translate(-32.94 -53.13)"/><path class="cls-4" d="M386.76,308.06q-4.12,13-8.24,25.93l-8.19,25.81-4.65,14.63c-.19.61.77.88,1,.26q4.13-13,8.24-25.92L383.07,323l4.65-14.63C387.91,307.71,387,307.45,386.76,308.06Z" transform="translate(-32.94 -53.13)"/><path class="cls-4" d="M420.65,358.21q-8.61,17.15-15.82,35-2,5-3.95,10.09c-.23.6.74.86,1,.26q6.73-17.83,14.91-35.08,2.33-4.89,4.76-9.73C421.81,358.14,420.94,357.63,420.65,358.21Z" transform="translate(-32.94 -53.13)"/><path class="cls-4" d="M338.71,293.29c-4.76,8.81-9.63,17.58-14.24,26.47-4.17,8-7.85,16.62-7.82,25.82a28,28,0,0,0,3.43,13.74.5.5,0,0,0,.87-.5c-4.32-7.61-3.93-16.87-1.44-25a78.76,78.76,0,0,1,5.34-12.64c2.18-4.25,4.5-8.44,6.77-12.65l7.95-14.74C339.88,293.22,339,292.72,338.71,293.29Z" transform="translate(-32.94 -53.13)"/><path class="cls-4" d="M364.13,303.72q-8.1,18.34-16.21,36.67-2,4.47-3.94,8.93a193.14,193.14,0,0,1-2.56-36.89q.15-5.49.62-11c0-.64-1-.63-1,0a193.49,193.49,0,0,0,.66,39c.42,3.55.94,7.07,1.55,10.59a.54.54,0,0,0,.06.25.47.47,0,0,0,.85.06v0a.39.39,0,0,0,.07-.16q8.06-18.24,16.13-36.48,2.31-5.24,4.63-10.47C365.25,303.65,364.39,303.14,364.13,303.72Z" transform="translate(-32.94 -53.13)"/><path class="cls-4" d="M328,394.08l-21.27,2.08c-.64.06-.64,1.06,0,1L328,395.08C328.67,395,328.68,394,328,394.08Z" transform="translate(-32.94 -53.13)"/><path class="cls-4" d="M229.15,395.93a85.71,85.71,0,0,1-18.35,3.7c-.72.06-1.43.12-2.15.16a6.93,6.93,0,0,1-1.82,0c-.45-.1-1-.31-.93-.86s.91-1.32,1.36-1.75a54.37,54.37,0,0,1,14.9-10.05c.58-.27.07-1.13-.51-.86a55.83,55.83,0,0,0-15.34,10.43c-.84.8-1.94,2-1.13,3.21.58.88,1.81,1,2.76.94a79.67,79.67,0,0,0,10.1-1.16,87.41,87.41,0,0,0,11.38-2.78C230,396.7,229.77,395.74,229.15,395.93Z" transform="translate(-32.94 -53.13)"/><path class="cls-4" d="M199,396a24,24,0,0,1-.05-13.54.5.5,0,0,0-1-.27,25,25,0,0,0,0,14.08A.5.5,0,0,0,199,396Z" transform="translate(-32.94 -53.13)"/><path class="cls-4" d="M195.24,380.81a.52.52,0,0,0-.69.18,19.68,19.68,0,0,0-3.69,8.31c-.12.63.85.9,1,.26a19,19,0,0,1,3.59-8.06A.5.5,0,0,0,195.24,380.81Z" transform="translate(-32.94 -53.13)"/><path class="cls-4" d="M349.17,292a101.38,101.38,0,0,0-8.12,9.08c-.39.5.31,1.21.71.7a99.86,99.86,0,0,1,8.12-9.08C350.34,292.21,349.63,291.5,349.17,292Z" transform="translate(-32.94 -53.13)"/><path class="cls-4" d="M365.86,306.11a40.71,40.71,0,0,0-8.61-15.43c-.43-.48-1.14.23-.71.71a39.24,39.24,0,0,1,8.35,15A.5.5,0,0,0,365.86,306.11Z" transform="translate(-32.94 -53.13)"/><path class="cls-4" d="M351.56,307.42c0-.64-1-.64-1,0l.57,13.3c0,.64,1,.64,1,0Z" transform="translate(-32.94 -53.13)"/><path class="cls-4" d="M355.18,310a1.34,1.34,0,0,0-1.62-.65,1.52,1.52,0,0,0-.48.31l-.05,0a1.05,1.05,0,0,0-.07.11c0,.06-.11.1-.14.17s0,.08,0,.12a.54.54,0,0,1,0,.1,1.51,1.51,0,0,0-.07.37v0s0,.07,0,.1a2,2,0,0,0,0,.25s0,.06.05.09a.8.8,0,0,0,.08.16,1,1,0,0,0,.15.25s0,0,0,.06a.54.54,0,0,0,.12.09.93.93,0,0,0,.15.13s.05,0,.07,0l.2.07a1.21,1.21,0,0,0,.25.08,1.27,1.27,0,0,0,.9-.2,1.39,1.39,0,0,0,.55-.77A1.36,1.36,0,0,0,355.18,310Z" transform="translate(-32.94 -53.13)"/><polygon class="cls-7" points="67.19 345.36 64.22 369.84 115.37 366.69 115.37 376.89 40.87 385.23 20.67 369.84 43.71 315.31 51.99 295.71 72.56 301.09 69.98 322.4 67.19 345.36"/><polygon class="cls-7" points="94.52 160.33 129.09 340.47 114.26 340.47 79.51 160.33 94.52 160.33"/><polygon class="cls-8" points="115.37 366.69 64.22 369.84 67.19 345.36 115.37 366.69"/><polygon class="cls-8" points="79.51 160.33 114.26 340.47 69.98 322.4 72.56 301.09 51.99 295.71 43.71 315.31 40.04 313.75 0 160.33 79.51 160.33"/><path class="cls-4" d="M139.9,353.57Q137,336.65,134,319.76t-6.24-33.92q-3.17-16.86-6.5-33.7t-6.81-33.64l-.87-4.2c-.13-.63-1.1-.36-1,.27q3.49,16.8,6.85,33.63T126,281.89q3.23,16.94,6.28,33.91t5.94,33.81q2.9,16.9,5.64,33.85c.23,1.41.45,2.82.68,4.23.1.64,1.07.37,1-.26Q142.78,370.48,139.9,353.57Z" transform="translate(-32.94 -53.13)"/><path class="cls-4" d="M99.33,353.79q-4.58,16.26-9.5,32.42T79.63,418.3q-3,9-6.09,18c-.21.61.76.87,1,.27q5.51-16,10.64-32.07T95,372.36q2.68-9.14,5.26-18.31A.5.5,0,0,0,99.33,353.79Z" transform="translate(-32.94 -53.13)"/></g></svg>